# xmcd CD database file
#
# Track frame offsets:
#	150
#	14114
#	29004
#	44772
#	59834
#	74333
#	88917
#	104891
#	117639
#	132507
#	146703
#	159024
#
# Disc length: 2310 seconds
#
# Revision: 0
# Processed by: cddbd v1.5.1PL0 Copyright (c) Steve Scherf et al.
# Submitted via: CDex 1.40Beta9
#
DISCID=c809040c
DTITLE=Codie Prevost - The Road Ahead
DYEAR=2005
DGENRE=Country
TTITLE0=Better Off Alone
TTITLE1=A Million Miles Away
TTITLE2=Alot To Be Said For Leaving
TTITLE3=Not Just The Beer Talkin'
TTITLE4=The Road Ahead
TTITLE5=That's Where I Come In
TTITLE6=He's Not Me
TTITLE7=Women 101
TTITLE8=Life Without Love
TTITLE9=Shinin' River
TTITLE10=Waste Of Love
TTITLE11=Next Weekend
EXTD=YEAR: 2005 ID3G: 2
EXTT0=
EXTT1=
EXTT2=
EXTT3=
EXTT4=
EXTT5=
EXTT6=
EXTT7=
EXTT8=
EXTT9=
EXTT10=
EXTT11=
PLAYORDER=
